<svg width="54" height="54" viewBox="0 0 54 54" fill="none" xmlns="http://www.w3.org/2000/svg">
<path d="M45.5625 21.6C47.2654 22.5806 48.6461 24.0355 49.5363 25.7873C50.4265 27.5391 50.7878 29.5121 50.5759 31.4656C50.3641 33.4192 49.5884 35.2689 48.3434 36.7892C47.0984 38.3095 45.438 39.4347 43.5645 40.0275C42.9023 43.0323 41.2339 45.7209 38.8353 47.6481C36.4367 49.5753 33.4519 50.6255 30.375 50.625H25.3125C24.8649 50.625 24.4357 50.4472 24.1192 50.1307C23.8028 49.8143 23.625 49.385 23.625 48.9375C23.625 48.4899 23.8028 48.0607 24.1192 47.7442C24.4357 47.4278 24.8649 47.25 25.3125 47.25H30.375C32.4696 47.2506 34.5128 46.6018 36.2234 45.3929C37.9339 44.1841 39.2276 42.4746 39.9262 40.5H38.8125C38.3649 40.5 37.9357 40.3222 37.6192 40.0057C37.3028 39.6893 37.125 39.26 37.125 38.8125V21.9375C37.125 21.4899 37.3028 21.0607 37.6192 20.7442C37.9357 20.4278 38.3649 20.25 38.8125 20.25H40.5C41.0467 20.25 41.5834 20.2938 42.1099 20.3782C41.7299 16.635 39.9741 13.166 37.1825 10.6434C34.391 8.12088 30.7625 6.72429 27 6.72429C23.2375 6.72429 19.609 8.12088 16.8174 10.6434C14.0259 13.166 12.27 16.635 11.8901 20.3782C12.4225 20.293 12.9608 20.2501 13.5 20.25H15.1875C15.635 20.25 16.0643 20.4278 16.3807 20.7442C16.6972 21.0607 16.875 21.4899 16.875 21.9375V38.8125C16.875 39.26 16.6972 39.6893 16.3807 40.0057C16.0643 40.3222 15.635 40.5 15.1875 40.5H13.5C11.269 40.5025 9.09975 39.7681 7.32913 38.4109C5.55851 37.0536 4.28571 35.1497 3.70849 32.9947C3.13126 30.8397 3.28193 28.5544 4.13709 26.4939C4.99225 24.4334 6.504 22.713 8.43749 21.6C8.43749 16.6769 10.3932 11.9555 13.8743 8.47431C17.3555 4.99316 22.0769 3.03748 27 3.03748C31.9231 3.03748 36.6445 4.99316 40.1257 8.47431C43.6068 11.9555 45.5625 16.6769 45.5625 21.6ZM13.5 23.625C11.7098 23.625 9.99288 24.3361 8.72701 25.602C7.46114 26.8679 6.74999 28.5848 6.74999 30.375C6.74999 32.1652 7.46114 33.8821 8.72701 35.1479C9.99288 36.4138 11.7098 37.125 13.5 37.125V23.625ZM47.25 30.375C47.25 28.5848 46.5388 26.8679 45.273 25.602C44.0071 24.3361 42.2902 23.625 40.5 23.625V37.125C42.2902 37.125 44.0071 36.4138 45.273 35.1479C46.5388 33.8821 47.25 32.1652 47.25 30.375Z" fill="#265DBA"/>
</svg>
