<svg width="54" height="54" viewBox="0 0 54 54" fill="none" xmlns="http://www.w3.org/2000/svg">
<path d="M2.63672 6.01172V47.9883H51.3633V6.01172H2.63672ZM5.80078 9.17578H38.0742V44.8242H5.80078V9.17578ZM14.1265 11.0742L15.1856 13.9873L7.69922 12.9178V14.8354L15.9212 16.0104L19.7416 26.5163L22.3579 22.6013L18.1664 11.0742H14.1265ZM29.3203 11.0742V12.9727H36.0703V11.0742H29.3203ZM29.3203 14.4492V16.3477H36.0703V14.4492H29.3203ZM40.5 18.5625H49.1484V23.625H40.5V18.5625ZM42.3984 20.4609V21.7266H47.25V20.4609H42.3984ZM36.1758 23.4843L23.9622 25.8159L24.7279 27.6021L36.1758 25.4169V23.4843ZM40.5 25.3125H49.1484V30.375H40.5V25.3125ZM22.1297 26.3596L16.0848 35.4056L21.1663 34.2199L26.3533 36.2125L22.1297 26.3596ZM42.3984 27.2109V28.4766H47.25V27.2109H42.3984ZM44.8923 32.8008C47.2694 32.8008 49.2166 34.7481 49.2166 37.125C49.2166 39.5019 47.2694 41.4492 44.8923 41.4492C42.5154 41.4492 40.5681 39.5019 40.5681 37.125C40.5681 34.7481 42.5154 32.8008 44.8923 32.8008ZM44.8923 34.6992C43.5413 34.6992 42.4666 35.7739 42.4666 37.125C42.4666 38.4761 43.5413 39.5508 44.8923 39.5508C46.2434 39.5508 47.3181 38.4761 47.3181 37.125C47.3181 35.7739 46.2434 34.6992 44.8923 34.6992ZM21.03 36.2011L19.1551 36.6388L18.5836 42.9258H22.3959L22.9405 36.9352L21.03 36.2011Z" fill="#265DBA"/>
</svg>
