<svg width="57" height="54" viewBox="0 0 57 54" fill="none" xmlns="http://www.w3.org/2000/svg">
<path fill-rule="evenodd" clip-rule="evenodd" d="M30.1791 5.15926C29.7337 4.73745 29.1298 4.50049 28.5 4.50049C27.8702 4.50049 27.2663 4.73745 26.8209 5.15926C24.8971 6.98176 22.135 8.06176 19.2612 8.62426C16.4065 9.18226 13.6871 9.17776 12.1363 9.01351C11.8043 8.97871 11.4684 9.01061 11.1504 9.10714C10.8324 9.20366 10.5394 9.36264 10.2906 9.57369C10.0418 9.78474 9.84284 10.0431 9.70661 10.332C9.57038 10.6208 9.49998 10.9336 9.5 11.25V31.5C9.5 34.425 10.849 37.0103 12.597 39.1388C14.3497 41.2718 16.6274 43.1055 18.8076 44.5815C21.5382 46.4129 24.4492 47.99 27.5001 49.2908L27.5429 49.3088L27.5571 49.3155H27.5642C27.8598 49.4359 28.178 49.4982 28.4998 49.4986C28.8215 49.499 29.1399 49.4375 29.4358 49.3178L28.5 47.25C29.4357 49.32 29.4381 49.3178 29.4381 49.3178L29.4429 49.3155L29.4548 49.3088L29.5023 49.2908L29.6566 49.2255C30.515 48.8556 31.3624 48.4632 32.1979 48.0488C34.276 47.022 36.2788 45.8636 38.1924 44.5815C40.3726 43.1055 42.6502 41.274 44.403 39.1388C46.151 37.0125 47.5 34.425 47.5 31.5V11.25C47.5 10.9336 47.4296 10.6208 47.2934 10.332C47.1572 10.0431 46.9582 9.78474 46.7094 9.57369C46.4606 9.36264 46.1676 9.20366 45.8496 9.10714C45.5316 9.01061 45.1957 8.97871 44.8637 9.01351C43.3129 9.17776 40.5935 9.18226 37.7388 8.62426C34.865 8.06176 32.1029 6.98176 30.1791 5.15926Z" fill="#265DBA"/>
<path d="M34.3807 19.8848C33.0363 18.5404 30.6705 17.6068 28.4959 17.5473M28.4959 17.5473C25.9091 17.4779 23.5928 18.6495 23.5928 21.8455C23.5928 27.7303 34.3807 24.7879 34.3807 30.6727C34.3807 34.0302 31.5092 35.4724 28.4959 35.3633M28.4959 17.5473V14M22.6111 32.6348C23.8762 34.3207 26.2264 35.2812 28.4959 35.3633M28.4959 35.3633V39.5" stroke="white" stroke-width="3.375" stroke-linecap="round" stroke-linejoin="round"/>
</svg>
