<svg width="108" height="103" viewBox="0 0 108 103" fill="none" xmlns="http://www.w3.org/2000/svg">
<rect x="2" width="103" height="103" rx="9" fill="#CFCFCF"/>
<g filter="url(#filter0_d_308_19)">
<mask id="path-2-inside-1_308_19" fill="white">
<path fill-rule="evenodd" clip-rule="evenodd" d="M10.5906 30.4517C7.93173 31.0219 6.21605 33.6125 6.7287 36.2831L15.2396 80.6197C15.7581 83.321 18.361 85.0961 21.0651 84.5927L89.8977 71.777C91.791 71.4245 93.3136 70.0158 93.8121 68.1555L101.273 40.3122C101.794 38.3665 101.097 36.298 99.5042 35.0647L77.3916 17.9428C76.2265 17.0407 74.7228 16.6984 73.282 17.0074L10.5906 30.4517ZM95.8289 41.3101C97.1625 41.6675 98.5334 40.876 98.8907 39.5424C99.2481 38.2087 98.4566 36.8379 97.123 36.4805C95.7893 36.1232 94.4185 36.9146 94.0611 38.2483C93.7037 39.5819 94.4952 40.9528 95.8289 41.3101Z"/>
</mask>
<path fill-rule="evenodd" clip-rule="evenodd" d="M10.5906 30.4517C7.93173 31.0219 6.21605 33.6125 6.7287 36.2831L15.2396 80.6197C15.7581 83.321 18.361 85.0961 21.0651 84.5927L89.8977 71.777C91.791 71.4245 93.3136 70.0158 93.8121 68.1555L101.273 40.3122C101.794 38.3665 101.097 36.298 99.5042 35.0647L77.3916 17.9428C76.2265 17.0407 74.7228 16.6984 73.282 17.0074L10.5906 30.4517ZM95.8289 41.3101C97.1625 41.6675 98.5334 40.876 98.8907 39.5424C99.2481 38.2087 98.4566 36.8379 97.123 36.4805C95.7893 36.1232 94.4185 36.9146 94.0611 38.2483C93.7037 39.5819 94.4952 40.9528 95.8289 41.3101Z" fill="#E2E2E2"/>
<path d="M6.7287 36.2831L7.71077 36.0946L7.71077 36.0946L6.7287 36.2831ZM10.5906 30.4517L10.8003 31.4295L10.8003 31.4295L10.5906 30.4517ZM15.2396 80.6197L16.2216 80.4312L16.2216 80.4312L15.2396 80.6197ZM21.0651 84.5927L21.2481 85.5758L21.2481 85.5758L21.0651 84.5927ZM89.8977 71.777L89.7146 70.7939L89.7146 70.7939L89.8977 71.777ZM93.8121 68.1555L94.778 68.4144L94.778 68.4144L93.8121 68.1555ZM101.273 40.3122L100.307 40.0534L100.307 40.0534L101.273 40.3122ZM99.5042 35.0647L100.116 34.274L100.116 34.274L99.5042 35.0647ZM77.3916 17.9428L76.7793 18.7335L76.7793 18.7335L77.3916 17.9428ZM73.282 17.0074L73.0723 16.0296L73.0723 16.0296L73.282 17.0074ZM7.71077 36.0946C7.30065 33.9581 8.67319 31.8856 10.8003 31.4295L10.3809 29.4739C7.19027 30.1582 5.13145 33.2669 5.74663 36.4716L7.71077 36.0946ZM16.2216 80.4312L7.71077 36.0946L5.74663 36.4716L14.2575 80.8082L16.2216 80.4312ZM20.8821 83.6096C18.7188 84.0123 16.6364 82.5922 16.2216 80.4312L14.2575 80.8082C14.8797 84.0497 18.0032 86.1799 21.2481 85.5758L20.8821 83.6096ZM89.7146 70.7939L20.8821 83.6096L21.2481 85.5758L90.0807 72.7601L89.7146 70.7939ZM92.8462 67.8967C92.4474 69.385 91.2293 70.5119 89.7146 70.7939L90.0807 72.7601C92.3528 72.3371 94.1799 70.6467 94.778 68.4144L92.8462 67.8967ZM100.307 40.0534L92.8462 67.8967L94.778 68.4144L102.239 40.571L100.307 40.0534ZM98.892 35.8554C100.166 36.842 100.724 38.4968 100.307 40.0534L102.239 40.571C102.864 38.2362 102.028 35.7539 100.116 34.274L98.892 35.8554ZM76.7793 18.7335L98.892 35.8554L100.116 34.274L78.0038 17.1521L76.7793 18.7335ZM73.4917 17.9852C74.6443 17.738 75.8473 18.0118 76.7793 18.7335L78.0038 17.1522C76.6057 16.0696 74.8012 15.6589 73.0723 16.0296L73.4917 17.9852ZM10.8003 31.4295L73.4917 17.9852L73.0723 16.0296L10.3809 29.4739L10.8003 31.4295ZM97.9248 39.2836C97.7104 40.0838 96.8879 40.5586 96.0877 40.3442L95.57 42.2761C97.4372 42.7764 99.3564 41.6683 99.8567 39.8012L97.9248 39.2836ZM96.8641 37.4464C97.6643 37.6609 98.1392 38.4834 97.9248 39.2836L99.8567 39.8012C100.357 37.9341 99.2489 36.0149 97.3818 35.5146L96.8641 37.4464ZM95.027 38.5071C95.2414 37.7069 96.0639 37.232 96.8641 37.4464L97.3818 35.5146C95.5146 35.0143 93.5955 36.1223 93.0952 37.9895L95.027 38.5071ZM96.0877 40.3442C95.2875 40.1298 94.8126 39.3073 95.027 38.5071L93.0952 37.9895C92.5949 39.8566 93.7029 41.7758 95.57 42.2761L96.0877 40.3442Z" fill="#265DBA" fill-opacity="0.65" mask="url(#path-2-inside-1_308_19)"/>
</g>
<g clip-path="url(#clip0_308_19)">
<rect width="44" height="44" transform="translate(33 28)" fill="#E2E2E2"/>
<g filter="url(#filter1_d_308_19)">
<path d="M54.7224 32.9404C49.5977 32.8651 42.4789 32.9751 41.0133 36.9123L37.4123 45.362C37.2526 45.1793 37.0432 45.0471 36.8095 44.9814L35.3597 44.5735C35.2003 44.5283 35.0335 44.5151 34.869 44.5345C34.7044 44.5539 34.5453 44.6056 34.4008 44.6867C34.2563 44.7678 34.1292 44.8766 34.0268 45.0069C33.9245 45.1372 33.8489 45.2865 33.8043 45.4461L33.048 48.1318C33.0028 48.2912 32.9896 48.4579 33.0091 48.6225C33.0285 48.787 33.0802 48.946 33.1613 49.0905C33.2424 49.235 33.3512 49.362 33.4814 49.4643C33.6117 49.5667 33.7609 49.6422 33.9205 49.6868L35.3707 50.0951C35.4191 50.1083 35.4675 50.1127 35.5159 50.1206C35.2387 50.8114 35.0662 51.5709 35.0662 52.0227V61.8435C35.0662 62.3469 35.2774 62.5801 35.6127 62.6892V65.3055C35.6122 65.5377 35.6576 65.7678 35.7462 65.9825C35.8348 66.1971 35.965 66.3922 36.1292 66.5564C36.2935 66.7207 36.4885 66.8508 36.7032 66.9395C36.9179 67.0281 37.1479 67.0735 37.3802 67.0729H42.1221C42.3543 67.0735 42.5844 67.0281 42.7991 66.9395C43.0138 66.8508 43.2088 66.7207 43.373 66.5564C43.5373 66.3922 43.6674 66.1971 43.7561 65.9825C43.8447 65.7678 43.8901 65.5377 43.8896 65.3055V62.7851H66.1109V65.3055C66.1105 65.5377 66.1559 65.7678 66.2446 65.9824C66.3334 66.1971 66.4636 66.3921 66.6278 66.5563C66.7921 66.7205 66.9871 66.8507 67.2018 66.9394C67.4165 67.028 67.6465 67.0734 67.8788 67.0729H72.6198C72.8521 67.0735 73.0822 67.0281 73.2969 66.9395C73.5117 66.8509 73.7068 66.7207 73.8711 66.5565C74.0354 66.3923 74.1656 66.1972 74.2544 65.9825C74.3431 65.7678 74.3886 65.5378 74.3882 65.3055V62.6897C74.7239 62.5805 74.9338 62.3473 74.9338 61.844V52.0232C74.9338 51.5713 74.7608 50.8119 74.4841 50.1211C74.5325 50.1136 74.5809 50.1092 74.6293 50.0955L76.08 49.6872C76.2395 49.6426 76.3886 49.567 76.5189 49.4647C76.6491 49.3623 76.7578 49.2353 76.8389 49.0908C76.9199 48.9463 76.9716 48.7873 76.991 48.6228C77.0104 48.4583 76.9972 48.2916 76.952 48.1323L76.1966 45.4465C76.152 45.2869 76.0763 45.1376 75.9739 45.0073C75.8715 44.877 75.7444 44.7682 75.5999 44.6871C75.4553 44.606 75.2962 44.5543 75.1316 44.5349C74.967 44.5155 74.8002 44.5288 74.6407 44.574L73.1909 44.9819C72.9573 45.0478 72.7478 45.18 72.5877 45.3625L68.9867 36.9127C67.4159 32.9157 59.8466 33.0161 54.7219 32.9408L54.7224 32.9404ZM69.3994 45.8957C69.4848 46.1492 69.2296 46.3181 68.9625 46.3335C68.9625 46.3335 68.0896 46.4075 66.8857 46.5047C65.9696 44.3645 63.8409 42.8562 61.3747 42.8562C58.6683 42.8562 56.3706 44.6734 55.6336 47.148C55.4294 47.1506 55.1923 47.1594 55.0026 47.1594C50.34 47.1594 41.0375 46.3335 41.0375 46.3335C40.7708 46.3177 40.5152 46.1487 40.6006 45.8957C44.183 34.9745 44.29 35.7955 54.802 35.9104C65.3136 36.0248 65.3748 35.2447 69.3994 45.8957ZM61.3747 44.9203C62.0237 44.918 62.6631 45.0774 63.2351 45.3839C63.8072 45.6905 64.2939 46.1346 64.6514 46.6763C62.546 46.8325 60.1229 46.9922 57.8648 47.0851C58.1898 46.4328 58.6906 45.8844 59.3109 45.5018C59.9311 45.1193 60.646 44.9178 61.3747 44.9203ZM37.1391 48.4645C37.1708 48.5115 37.2016 48.5586 37.2368 48.6039H37.1004L37.1391 48.4645ZM39.4684 51.2074C40.3907 51.1925 45.3416 52.8587 45.3416 52.8587C45.9598 53.033 46.504 54.2016 46.501 54.844C46.4917 57.0075 40.909 56.2564 38.6426 56.2652C38.4903 56.2655 38.3394 56.2357 38.1986 56.1776C38.0579 56.1195 37.93 56.0341 37.8223 55.9264C37.7145 55.8188 37.6291 55.6909 37.571 55.5501C37.5128 55.4094 37.4829 55.2586 37.4832 55.1063V52.3673C37.4832 51.7249 38.5462 51.2233 39.4684 51.2074ZM70.5316 51.2074C71.4538 51.2228 72.5168 51.7249 72.5168 52.3673V55.1063C72.5171 55.2586 72.4873 55.4095 72.4292 55.5503C72.371 55.6911 72.2856 55.819 72.1779 55.9267C72.0702 56.0344 71.9423 56.1198 71.8015 56.178C71.6607 56.2362 71.5098 56.2659 71.3574 56.2657C69.0914 56.2569 63.5083 57.0075 63.499 54.844C63.496 54.2016 64.0402 53.033 64.6584 52.8587C64.6584 52.8587 69.6093 51.1925 70.5316 51.2074Z" fill="#265DBA"/>
</g>
</g>
<defs>
<filter id="filter0_d_308_19" x="0.638184" y="13.8962" width="106.805" height="79.7817" filterUnits="userSpaceOnUse" color-interpolation-filters="sRGB">
<feFlood flood-opacity="0" result="BackgroundImageFix"/>
<feColorMatrix in="SourceAlpha" type="matrix" values="0 0 0 0 0 0 0 0 0 0 0 0 0 0 0 0 0 0 127 0" result="hardAlpha"/>
<feOffset dy="3"/>
<feGaussianBlur stdDeviation="3"/>
<feComposite in2="hardAlpha" operator="out"/>
<feColorMatrix type="matrix" values="0 0 0 0 0 0 0 0 0 0 0 0 0 0 0 0 0 0 0.25 0"/>
<feBlend mode="normal" in2="BackgroundImageFix" result="effect1_dropShadow_308_19"/>
<feBlend mode="normal" in="SourceGraphic" in2="effect1_dropShadow_308_19" result="shape"/>
</filter>
<filter id="filter1_d_308_19" x="29.0004" y="32.927" width="51.9993" height="42.146" filterUnits="userSpaceOnUse" color-interpolation-filters="sRGB">
<feFlood flood-opacity="0" result="BackgroundImageFix"/>
<feColorMatrix in="SourceAlpha" type="matrix" values="0 0 0 0 0 0 0 0 0 0 0 0 0 0 0 0 0 0 127 0" result="hardAlpha"/>
<feOffset dy="4"/>
<feGaussianBlur stdDeviation="2"/>
<feComposite in2="hardAlpha" operator="out"/>
<feColorMatrix type="matrix" values="0 0 0 0 0 0 0 0 0 0 0 0 0 0 0 0 0 0 0.25 0"/>
<feBlend mode="normal" in2="BackgroundImageFix" result="effect1_dropShadow_308_19"/>
<feBlend mode="normal" in="SourceGraphic" in2="effect1_dropShadow_308_19" result="shape"/>
</filter>
<clipPath id="clip0_308_19">
<rect width="44" height="44" fill="white" transform="translate(33 28)"/>
</clipPath>
</defs>
</svg>
