<svg width="54" height="54" viewBox="0 0 54 54" fill="none" xmlns="http://www.w3.org/2000/svg">
<path d="M40.5 37.125L47.25 4.5C47.25 4.5 35.4375 6.75 35.4375 11.25C35.4375 14.0625 39.9375 15.75 38.25 17.4375C36.5625 19.125 30.375 20.8125 30.375 25.3125C30.375 28.125 32.22 30.2175 30.375 32.0625C28.6875 33.75 27 32.8657 24.1875 32.0625C21.0375 31.1625 14.625 30.375 12.375 30.9375C10.125 31.5 7.875 32.625 7.875 36C7.875 37.8562 9 39.9375 11.8125 40.5C14.625 41.0625 18 38.25 22.5 38.25C27 38.25 32.625 41.625 36 41.625C39.375 41.625 40.5 37.125 40.5 37.125Z" stroke="#265DBA" stroke-width="4.5" stroke-linejoin="round"/>
<path d="M12.375 40.5L9 49.5H46.125L39.375 40.5" stroke="#265DBA" stroke-width="4.5" stroke-linejoin="round"/>
</svg>
